HIERARCHY
ROOT joint_Root
{
	OFFSET 0.0 0.0 0.0
	CHANNELS 6 Xposition Yposition Zposition Zrotation Xrotation Yrotation 
	JOINT Hips
	{
		OFFSET -0.726466 93.3139 -2.00062
		CHANNELS 6 Xposition Yposition Zposition Zrotation Xrotation Yrotation 
		JOINT Spine
		{
			OFFSET 15.7357 0.0 0.0
			CHANNELS 6 Xposition Yposition Zposition Zrotation Xrotation Yrotation 
			JOINT Chest
			{
				OFFSET 8.98455 -0.406207 0.0
				CHANNELS 6 Xposition Yposition Zposition Zrotation Xrotation Yrotation 
				JOINT Neck
				{
					OFFSET 16.3773 0.0 0.0
					CHANNELS 6 Xposition Yposition Zposition Zrotation Xrotation Yrotation 
					JOINT Head
					{
						OFFSET 6.45672 0.0 0.0
						CHANNELS 6 Xposition Yposition Zposition Zrotation Xrotation Yrotation 
						End Site
						{
							OFFSET 0.0 0.0 0.0
						}
					}
				}
				JOINT Shoulder_L
				{
					OFFSET 12.9942 -0.242716 4.98039
					CHANNELS 6 Xposition Yposition Zposition Zrotation Xrotation Yrotation 
					JOINT UpperArm_L
					{
						OFFSET 5.34809 0.0 0.0
						CHANNELS 6 Xposition Yposition Zposition Zrotation Xrotation Yrotation 
						JOINT LowerArm_L
						{
							OFFSET 24.3286 1.87007e-05 0.0
							CHANNELS 6 Xposition Yposition Zposition Zrotation Xrotation Yrotation 
							JOINT Hand_L
							{
								OFFSET 22.2916 0.0 0.0
								CHANNELS 6 Xposition Yposition Zposition Zrotation Xrotation Yrotation 
								End Site
								{
									OFFSET 0.0 0.0 0.0
								}
							}
						}
					}
				}
				JOINT Shoulder_R
				{
					OFFSET 12.9945 -0.242716 -4.98039
					CHANNELS 6 Xposition Yposition Zposition Zrotation Xrotation Yrotation 
					JOINT UpperArm_R
					{
						OFFSET -5.34813 0.0 0.0
						CHANNELS 6 Xposition Yposition Zposition Zrotation Xrotation Yrotation 
						JOINT LowerArm_R
						{
							OFFSET -24.3289 0.000322201 0.0
							CHANNELS 6 Xposition Yposition Zposition Zrotation Xrotation Yrotation 
							JOINT Hand_R
							{
								OFFSET -22.2915 -0.000108084 0.0
								CHANNELS 6 Xposition Yposition Zposition Zrotation Xrotation Yrotation 
								End Site
								{
									OFFSET 0.0 0.0 0.0
								}
							}
						}
					}
				}
			}
		}
		JOINT UpperLeg_L
		{
			OFFSET -2.19248 -6.46944 0.0
			CHANNELS 6 Xposition Yposition Zposition Zrotation Xrotation Yrotation 
			JOINT LowerLeg_L
			{
				OFFSET 39.0811 0.0 -1.23785e-05
				CHANNELS 6 Xposition Yposition Zposition Zrotation Xrotation Yrotation 
				JOINT Foot_L
				{
					OFFSET 40.9854 0.0 -1.26872e-05
					CHANNELS 6 Xposition Yposition Zposition Zrotation Xrotation Yrotation 
					JOINT Toes_L
					{
						OFFSET 11.7543 0.0 0.0
						CHANNELS 6 Xposition Yposition Zposition Zrotation Xrotation Yrotation 
						End Site
						{
							OFFSET 0.0 0.0 0.0
						}
					}
				}
			}
		}
		JOINT UpperLeg_R
		{
			OFFSET -2.19251 6.46944 0.0
			CHANNELS 6 Xposition Yposition Zposition Zrotation Xrotation Yrotation 
			JOINT LowerLeg_R
			{
				OFFSET -39.0811 -0.00228153 -0.0401928
				CHANNELS 6 Xposition Yposition Zposition Zrotation Xrotation Yrotation 
				JOINT Foot_R
				{
					OFFSET -40.9854 0.0 0.0
					CHANNELS 6 Xposition Yposition Zposition Zrotation Xrotation Yrotation 
					JOINT Toes_R
					{
						OFFSET -11.7543 0.0 0.0
						CHANNELS 6 Xposition Yposition Zposition Zrotation Xrotation Yrotation 
						End Site
						{
							OFFSET 0.0 0.0 0.0
						}
					}
				}
			}
		}
	}
}
MOTION
Frames:	4
Frame Time:	0.0333333
0.000000 0.000000 0.000000 0.000000 0.000000 -0.000000 -220.485000 91.062900 184.984000 63.982600 79.685600 29.339400 15.735700 0.000005 -0.000001 73.514900 83.296600 -72.385900 8.984550 -0.406207 -0.000000 5.137420 -3.822330 2.427620 16.377300 -0.000001 -0.000001 6.957070 2.701430 -1.542830 6.456720 -0.000001 -0.000000 2.848220 8.908360 5.571900 12.994200 -0.242716 4.980390 -88.167400 -4.981000 -69.770400 5.348090 -0.000007 -0.000001 -53.955600 28.909800 -22.799500 24.328600 0.000019 0.000005 2.482040 2.762070 -41.972700 22.291600 -0.000001 0.000005 4.101630 5.590310 -10.779500 12.994500 -0.242716 -4.980390 88.289900 3.670230 -64.997000 -5.348130 -0.000001 -0.000004 -58.872400 28.791300 1.542920 -24.328900 0.000322 -0.000009 2.300950 3.502210 -33.346900 -22.291500 -0.000108 -0.000004 -0.832493 5.540230 -8.253090 -2.192480 -6.469440 -0.000000 -175.071000 -6.221220 -1.533900 39.081100 -0.000007 -0.000012 -0.246311 0.457942 28.274700 40.985400 -0.000006 -0.000013 -1.936730 -7.148690 -73.523900 11.754300 -0.000000 0.000003 -0.000029 -0.000349 -16.591200 -2.192510 6.469440 -0.000001 -178.215000 16.734600 159.114000 -39.081100 -0.002282 -0.040193 0.072122 -0.067136 45.726500 -40.985400 0.000008 0.000006 0.383676 -3.002540 -57.152700 -11.754300 -0.000006 -0.000006 -0.019855 -0.166484 -23.374700
0.000000 0.000000 0.000000 0.000000 0.000000 -0.000000 -218.156000 90.802500 185.089000 60.298400 81.096600 32.154000 15.735700 0.000005 -0.000001 67.804500 83.216400 -66.391200 8.984550 -0.406207 -0.000000 4.876860 -5.151070 3.044330 16.377300 -0.000001 -0.000001 7.280070 2.648750 -1.666350 6.456720 -0.000001 -0.000000 2.949870 9.983750 5.143260 12.994200 -0.242716 4.980390 -88.089100 -5.363770 -70.357800 5.348090 -0.000007 -0.000001 -51.185100 28.362000 -26.117900 24.328600 0.000019 0.000005 2.396360 2.389020 -45.116400 22.291600 -0.000001 0.000005 4.323810 5.591780 -10.861900 12.994500 -0.242716 -4.980390 88.056500 3.964670 -63.860000 -5.348130 -0.000001 -0.000004 -58.540200 27.953400 2.778760 -24.328900 0.000322 -0.000009 2.633050 3.946740 -33.759600 -22.291500 -0.000108 -0.000004 -0.487173 5.541500 -8.310620 -2.192480 -6.469440 -0.000000 -175.129000 -5.559750 -0.404177 39.081100 -0.000007 -0.000012 -0.281606 0.542125 27.450100 40.985400 -0.000006 -0.000013 -1.887110 -6.326390 -74.735300 11.754300 -0.000000 0.000003 -0.000019 -0.000246 -16.587200 -2.192510 6.469440 -0.000001 -176.240000 18.222100 156.527000 -39.081100 -0.002282 -0.040193 0.039002 -0.048074 36.609200 -40.985400 0.000008 0.000006 -0.712215 -2.082490 -56.295300 -11.754300 -0.000006 -0.000006 -0.019495 -0.164477 -23.292000
0.000000 0.000000 0.000000 0.000000 0.000000 -0.000000 -215.624000 90.293000 185.282000 56.386100 82.828500 35.623100 15.735700 0.000005 -0.000001 63.292800 82.913000 -61.719400 8.984550 -0.406207 -0.000000 5.010540 -6.395360 3.425860 16.377300 -0.000001 -0.000001 7.571700 2.441680 -1.651640 6.456720 -0.000001 -0.000000 2.830490 10.657000 4.795720 12.994200 -0.242716 4.980390 -88.070000 -5.578870 -70.881800 5.348090 -0.000007 -0.000001 -48.292400 27.537400 -29.229700 24.328600 0.000019 0.000005 2.476320 2.213280 -48.231800 22.291600 -0.000001 0.000005 4.341520 5.593020 -10.933200 12.994500 -0.242716 -4.980390 87.871600 4.157920 -62.861300 -5.348130 -0.000001 -0.000004 -58.566100 26.693400 3.893060 -24.328900 0.000322 -0.000009 2.585340 3.837140 -34.020000 -22.291500 -0.000108 -0.000004 -0.215160 5.542720 -8.366780 -2.192480 -6.469440 -0.000000 -175.334000 -4.979670 0.889408 39.081100 -0.000007 -0.000012 -0.293911 0.568910 27.322400 40.985400 -0.000006 -0.000013 -1.876420 -5.241410 -76.390400 11.754300 -0.000000 0.000003 -0.000023 -0.000283 -16.588600 -2.192510 6.469440 -0.000001 -174.907000 19.597900 155.028000 -39.081100 -0.002282 -0.040193 0.018126 -0.029070 27.008800 -40.985400 0.000008 0.000006 -1.875070 -1.001490 -55.388900 -11.754300 -0.000006 -0.000006 -0.019169 -0.162644 -23.216600
0.000000 0.000000 0.000000 0.000000 0.000000 -0.000000 -212.939000 89.557500 185.525000 50.413100 84.755900 41.184300 15.735700 0.000005 -0.000001 60.266200 82.565800 -58.616100 8.984550 -0.406207 -0.000000 5.288450 -7.394100 3.641970 16.377300 -0.000001 -0.000001 7.663250 2.015360 -1.547090 6.456720 -0.000001 -0.000000 2.533350 10.914700 4.707780 12.994200 -0.242716 4.980390 -88.093500 -5.690920 -71.444000 5.348090 -0.000007 -0.000001 -45.351700 26.602000 -32.317600 24.328600 0.000019 0.000005 2.691210 2.184830 -50.956400 22.291600 -0.000001 0.000005 4.711440 5.598910 -11.277100 12.994500 -0.242716 -4.980390 87.686200 4.349030 -61.950700 -5.348130 -0.000001 -0.000004 -58.924400 25.153800 4.900320 -24.328900 0.000322 -0.000009 2.556490 3.780540 -34.115900 -22.291500 -0.000108 -0.000004 -0.061228 5.542830 -8.371680 -2.192480 -6.469440 -0.000000 -175.535000 -4.484920 2.100950 39.081100 -0.000007 -0.000012 -0.320295 0.609902 27.707300 40.985400 -0.000006 -0.000013 -1.857320 -3.854640 -78.431700 11.754300 -0.000000 0.000003 -0.000028 -0.000337 -16.590700 -2.192510 6.469440 -0.000001 -174.189000 20.697500 153.633000 -39.081100 -0.002282 -0.040193 0.009186 -0.017343 18.675100 -40.985400 0.000008 0.000006 -3.207820 0.327537 -53.746400 -11.754300 -0.000006 -0.000006 -0.021227 -0.173993 -23.684200
